<svg id="레이어_2" data-name="레이어 2" xmlns="http://www.w3.org/2000/svg" viewBox="0 0 122.12 90.72"><defs><style>.cls-1,.cls-8{fill:#fff;}.cls-1,.cls-3,.cls-5,.cls-6{fill-rule:evenodd;}.cls-10,.cls-11,.cls-2{fill:none;}.cls-2{stroke:#88bf43;stroke-width:0.61px;}.cls-3,.cls-4{fill:#8dc63f;}.cls-5{fill:#88bf43;}.cls-6{fill:#378840;}.cls-7{fill:#388840;}.cls-10,.cls-8{stroke:#221e1f;}.cls-8{stroke-width:0.4px;}.cls-9{fill:#221e1f;}.cls-10{stroke-linecap:round;stroke-linejoin:round;stroke-width:0.31px;}</style></defs><path class="cls-1" d="M364.06,393.26c0,20.6-25.62,37.3-57.23,37.3s-57.22-16.7-57.22-37.3S275.23,356,306.83,356s57.23,16.69,57.23,37.3" transform="translate(-247.47 -355.65)"/><path class="cls-2" d="M364.06,393.26c0,20.6-25.62,37.3-57.23,37.3s-57.22-16.7-57.22-37.3S275.23,356,306.83,356,364.06,372.65,364.06,393.26Z" transform="translate(-247.47 -355.65)"/><path class="cls-3" d="M326.82,385.31a2.56,2.56,0,1,0-2.61-2.56,2.58,2.58,0,0,0,2.61,2.56" transform="translate(-247.47 -355.65)"/><path class="cls-3" d="M335.13,390.4c.55.81,1.08,1.59,1.51,2.24a6.81,6.81,0,1,1-9.74,6.15c0-.15,0-.29,0-.42h-.36c-.06.11-.58.94-1.21,2a8.51,8.51,0,1,0,9.78-9.94" transform="translate(-247.47 -355.65)"/><path class="cls-3" d="M322.33,404.55l4-6.55h8.73c1,0,3.49-1.72,2.23-3.7,0,0-5.5-8.23-6-8.69a2.7,2.7,0,0,0-3.15,0c-1,.66-3.07,5.33-3.07,5.33s-2.35,0-3.07,0-.92,2.39,0,2.39h4.28l1.59-2.77,3.32,5.08h-6.76l-5.29,8.95c-.3.55-.25,1.33.79,1.33a2.78,2.78,0,0,0,2.36-1.33" transform="translate(-247.47 -355.65)"/><rect class="cls-4" x="71.69" y="36.34" width="7.61" height="2.11"/><polygon class="cls-3" points="72.54 36.45 71.72 37.03 67.28 30.7 68.11 30.12 72.54 36.45"/><path class="cls-5" d="M283.58,412.92a68.57,68.57,0,0,0,23.74,4c23.2,0,42-10.21,42-22.89,0-6.46-6-14.88-21.16-14.88-11,0-20.61,4.86-20.61,10.82a4.62,4.62,0,0,0,1.42,3,7,7,0,0,1,1.6,4.73c0,7.32-10.89,13.23-24.3,13.23-8.86,0-17-2.46-21-6.46A14.14,14.14,0,0,1,261.06,394c0-14,20.74-25.28,46.26-25.28s46.33,11.32,46.33,25.28-20.74,25.29-46.33,25.29a75.42,75.42,0,0,1-27-4.74Z" transform="translate(-247.47 -355.65)"/><path class="cls-6" d="M283.28,410.85a68.53,68.53,0,0,0,23.74,4c23.19,0,42-10.22,42-22.89,0-6.46-6-14.88-21.16-14.88-11,0-20.61,4.85-20.61,10.82a4.61,4.61,0,0,0,1.41,3,7,7,0,0,1,1.6,4.73c0,7.32-10.89,13.23-24.3,13.23-8.86,0-17-2.46-21-6.46A14.17,14.17,0,0,1,260.76,392c0-14,20.73-25.28,46.26-25.28S353.34,378,353.34,392,332.61,417.25,307,417.25a75.44,75.44,0,0,1-27-4.74Z" transform="translate(-247.47 -355.65)"/><path class="cls-7" d="M270.16,371.23a15.32,15.32,0,0,0-1.2-2.41l-2.53,1.52-.46-.78,3.49-2.09.33.56a16.66,16.66,0,0,1,1.37,2.71Zm0,1.17c.65-.42,1.28-.86,1.86-1.3l.47.67a30.44,30.44,0,0,1-3.91,2.71l-.57-.75,1.21-.73-1.2-2,1-.57Zm3.5-3.53-.91.55,1.94,3.25-1,.58-4.07-6.8,1-.59,1.64,2.75.92-.55Z" transform="translate(-247.47 -355.65)"/><path class="cls-7" d="M279.13,363.88l-4.34,1.67-.32-.84,1.64-.62-.27-.69,1.07-.41.26.69,1.64-.63Zm-1,3.79c-1.06.41-2,.14-2.33-.67s.23-1.65,1.28-2.05,2-.14,2.34.66-.22,1.65-1.29,2.06m-.31-.8c.48-.18.73-.49.59-.87s-.55-.43-1-.25-.73.49-.58.86.53.44,1,.26m-.78,1.79,4.92-1.89.95,2.47-1.06.41L281.2,368l-3.86,1.48Zm5.07-4.42-1,.37.71,1.86-1.06.4L279,362.24l1.06-.41.73,1.91,1-.38Z" transform="translate(-247.47 -355.65)"/><path class="cls-7" d="M288,360.49a5.77,5.77,0,0,1-2.2,6.44l-.78-.73c1.74-1.41,2.31-2.82,2.06-4.57l-2.56.61-.21-.88Zm2.1-1.34,1.82,7.71-1.12.26L289,359.41Z" transform="translate(-247.47 -355.65)"/><path class="cls-7" d="M297.93,362.06l.06.51,2.13-.24.23,2-4.29.49.05.44,4.5-.51.09.85-5.61.64-.24-2.07,4.3-.49,0-.43-4.32.49-.09-.84,2.16-.24-.05-.51-3,.34-.1-.89,7.09-.81.1.89Zm2.13-1.47a3.84,3.84,0,0,1-3-1,3.86,3.86,0,0,1-2.67,1.7l-.47-.81c1.75-.37,2.51-1.26,2.42-2v-.15l1.16-.13v.14c.09.76,1,1.46,2.82,1.43Z" transform="translate(-247.47 -355.65)"/><path class="cls-7" d="M307.44,362.06a3,3,0,0,1-1.81-1.52,3.08,3.08,0,0,1-1.86,1.77l-.59-.89A2.63,2.63,0,0,0,305,359h-1.55v-.91l4.25,0v.91h-1.53a2.43,2.43,0,0,0,1.8,2.22Zm2.45,1.89c0,1-1,1.53-2.69,1.55s-2.72-.54-2.73-1.5,1-1.53,2.7-1.55,2.71.53,2.72,1.5m-1.14,0c0-.45-.54-.66-1.57-.65s-1.58.23-1.57.68.54.66,1.58.65,1.57-.23,1.56-.68m-.07-4.5,0-1.91h1.13l0,4.71h-1.13l0-1.88H307.5v-.92Z" transform="translate(-247.47 -355.65)"/><path class="cls-7" d="M319.59,364.44l-.09.91-7.12-.71.09-.92,3,.3.14-1.45-2.23-.22.41-4.12,1.12.11-.12,1.23,3.36.34.12-1.23,1.12.11-.42,4.12-2.23-.22-.15,1.45Zm-5-2.88,3.36.34.11-1.1-3.36-.34Z" transform="translate(-247.47 -355.65)"/><path class="cls-7" d="M329,364.34l-.19.87-7-1.54.19-.86,2.93.64.1-.48-2.05-.45.72-3.31,5.31,1.17-.18.84-4.21-.93-.09.4,4,.89-.18.81-4-.89-.09.42,4.27.94-.18.84-2.21-.48-.1.47Zm-1.37,2.3c-.18.83-1.26,1.05-3,.68s-2.57-1-2.39-1.86,1.26-1,2.95-.68,2.59,1,2.4,1.86m-1.11-.24c.07-.32-.4-.57-1.47-.8s-1.59-.21-1.66.11.39.57,1.46.8,1.6.21,1.67-.11" transform="translate(-247.47 -355.65)"/><path class="cls-7" d="M336.68,369.93l-.31.85-5.13-1.88.88-2.4,1.07.39-.57,1.55Zm-1.55-3a3,3,0,0,1-1.16-2.15,3.19,3.19,0,0,1-2.38,1l-.23-1a2.7,2.7,0,0,0,2.66-1.8l.26-.73,1.09.39-.27.73a2.49,2.49,0,0,0,.88,2.95Zm1.74,1.91-1.07-.39,2-5.42,1.07.39Z" transform="translate(-247.47 -355.65)"/><path class="cls-7" d="M345.74,373.14l-2.64-1.5-1.22,2.15-1-.57,1.22-2.14-2.59-1.48.44-.78,6.22,3.53Zm.08-1.86L341,368.57l1.74-3.05,1,.55-.44.79,2.82,1.6.45-.78,1,.55Zm-.12-2-2.83-1.6-.4.71,2.82,1.61Z" transform="translate(-247.47 -355.65)"/><polygon class="cls-1" points="37.61 44.83 33.85 44.83 33.32 32.49 25.36 44.83 21.6 44.83 21.57 24.5 26.26 24.5 25.97 37.32 34.04 24.5 37.41 24.5 37.76 37.32 45.22 24.5 49.92 24.5 37.61 44.83"/><path class="cls-1" d="M300.46,400.64l.07-3.61h-5.68l-2,3.61h-5.44l12.26-20.38h5.37l.86,20.38Zm.35-14.38-4.18,7.42h4.09Z" transform="translate(-247.47 -355.65)"/><path class="cls-8" d="M250.09,417.19l-2.27-2.83a1.45,1.45,0,0,1-.12-.19.31.31,0,0,1,0-.16.26.26,0,0,1,.07-.15,1.52,1.52,0,0,1,.18-.17l.93-.74a.12.12,0,0,1,.19,0l.41.5a.13.13,0,0,1,0,.2l-.62.5a.09.09,0,0,0,0,.15l1.91,2.38a.19.19,0,0,1,0,.09.11.11,0,0,1-.05.09l-.42.34c-.05,0-.09,0-.11,0S250.11,417.21,250.09,417.19Zm-.3-3.85a1.81,1.81,0,0,1-.29-.5,1.63,1.63,0,0,1-.09-.52,1.19,1.19,0,0,1,.1-.49,1.05,1.05,0,0,1,.31-.39,1,1,0,0,1,.45-.21,1.2,1.2,0,0,1,.5,0,1.73,1.73,0,0,1,.49.21,1.55,1.55,0,0,1,.42.39,1.68,1.68,0,0,1,.29.5,1.58,1.58,0,0,1,.09.52,1.12,1.12,0,0,1-.1.48,1.08,1.08,0,0,1-.3.4,1,1,0,0,1-.46.21,1.4,1.4,0,0,1-.5,0,1.67,1.67,0,0,1-.48-.21A1.59,1.59,0,0,1,249.79,413.34Zm1.35-1.08a.63.63,0,0,0-.4-.25.45.45,0,0,0-.38.1.49.49,0,0,0-.19.36.64.64,0,0,0,.15.44.63.63,0,0,0,.41.25.49.49,0,0,0,.39-.1.5.5,0,0,0,.18-.35A.64.64,0,0,0,251.14,412.26Zm2.11,3.27-.51-.63-1.45,1.17a.19.19,0,0,1-.1.05s-.05,0-.08-.06l-.42-.52a.16.16,0,0,1,0-.1.12.12,0,0,1,.06-.09l3.78-3a.12.12,0,0,1,.19,0l.41.53a.11.11,0,0,1,0,.17l-1.71,1.37.51.62,0,.08s0,.06-.06.1l-.42.35a.13.13,0,0,1-.11,0A.19.19,0,0,1,253.25,415.53ZM252.9,413l-2.18-2.71a.14.14,0,0,1,0-.21l.34-.27a.13.13,0,0,1,.2,0l2.17,2.71a.14.14,0,0,1,0,.21l-.34.27A.13.13,0,0,1,252.9,413Zm.25-1.29-1.08-1.35a.36.36,0,0,1,0-.09.16.16,0,0,1,.07-.11l.35-.28a.13.13,0,0,1,.12,0,.16.16,0,0,1,.08.06l1.08,1.34a.13.13,0,0,1,0,.21l-.34.28a.19.19,0,0,1-.1.05A.16.16,0,0,1,253.15,411.72Z" transform="translate(-247.47 -355.65)"/><path class="cls-8" d="M257.56,419.8l-1.74-1.64-.61.65.84.78a1,1,0,0,1,.15.18.24.24,0,0,1,0,.16.32.32,0,0,1-.06.17,1.12,1.12,0,0,1-.15.19l-1.3,1.38c-.06.07-.13.08-.19,0l-.47-.45a.13.13,0,0,1,0-.2l1-1.1c0-.06.05-.1,0-.14l-2.27-2.14a.16.16,0,0,1-.06-.08s0-.06,0-.1l.38-.4s.08-.06.1-.05l.08.05,1.17,1.09.61-.64-1.75-1.64a.16.16,0,0,1-.05-.09.19.19,0,0,1,.05-.1l.35-.37.09-.07s.07,0,.11.05l2.89,2.72a2.6,2.6,0,0,0,.28-.23,3.88,3.88,0,0,0,.31-.26l.26-.23.16-.16a.3.3,0,0,0,.08-.12s0-.08-.08-.14l-2.18-2.06a.17.17,0,0,1-.07-.08s0-.06.05-.1l.37-.4a.14.14,0,0,1,.1-.05l.09.06,2.63,2.47a.41.41,0,0,1,0,.67c-.17.18-.37.38-.61.6a7.7,7.7,0,0,1-.76.63l.62.59a.12.12,0,0,1,0,.2l-.34.37s-.08.06-.11,0A.18.18,0,0,1,257.56,419.8Z" transform="translate(-247.47 -355.65)"/><path class="cls-8" d="M259.92,425.8l-2.68-2a2.3,2.3,0,0,1-.2-.16.48.48,0,0,1-.08-.16.28.28,0,0,1,0-.17,1.12,1.12,0,0,1,.13-.22l1-1.33q.09-.1.18,0l.54.39s.06.06.06.08,0,.06,0,.11l-.21.28,2,1.48.22-.3c.06-.08.12-.09.19,0l.54.4c.07,0,.07.11,0,.19l-1,1.37a.56.56,0,0,1-.31.25A.61.61,0,0,1,259.92,425.8Zm-1-4-.5-.37c-.07-.05-.08-.12,0-.2l.47-.64c-.31-.21-.61-.43-.92-.67,0,0-.06-.06-.06-.09a.21.21,0,0,1,.05-.11l.22-.3s.07-.08.09-.08a.16.16,0,0,1,.1,0c.46.35.88.66,1.29.92s.81.5,1.21.72c.06,0,.08.05.09.08a.19.19,0,0,1,0,.1l-.18.35s-.06.06-.08.06l-.1,0-.46-.24-.46-.27-.5.69A.13.13,0,0,1,259,421.84Zm1.29,2.84-2-1.49-.18.24s0,.07,0,.09l1.92,1.41s.06,0,.09,0Zm-.47-4.5a1.71,1.71,0,0,1-.38-.38,1.47,1.47,0,0,1-.24-.44,1,1,0,0,1,0-.45.8.8,0,0,1,.16-.42.91.91,0,0,1,.36-.29,1.13,1.13,0,0,1,.45-.09,1.46,1.46,0,0,1,.49.09,1.87,1.87,0,0,1,.48.26,2,2,0,0,1,.39.38,1.43,1.43,0,0,1,.23.44,1.19,1.19,0,0,1,0,.46.87.87,0,0,1-.18.42.83.83,0,0,1-.34.28,1.13,1.13,0,0,1-.45.09,1.46,1.46,0,0,1-.49-.09A2,2,0,0,1,259.77,420.18Zm1,3-.49-.37-.07-.07s0-.06,0-.11l.07-.09-.58-.43a.17.17,0,0,1-.07-.08.19.19,0,0,1,0-.1l.24-.32s.06-.07.09-.07a.25.25,0,0,1,.08.05l.58.43,1.73-2.35a.12.12,0,0,1,.19,0l.49.36s.06.06.06.08a.16.16,0,0,1,0,.1l-2.18,3c0,.06-.07.08-.09.08A.16.16,0,0,1,260.76,423.16Zm-.11-4.17a.57.57,0,0,0-.42-.14.39.39,0,0,0-.29.14.29.29,0,0,0-.05.14.33.33,0,0,0,0,.17.46.46,0,0,0,.08.19.86.86,0,0,0,.39.29.52.52,0,0,0,.21,0,.31.31,0,0,0,.17,0,.27.27,0,0,0,.12-.09.42.42,0,0,0,.05-.32A.71.71,0,0,0,260.65,419Zm1.12,5-.52-.39s-.07-.05-.07-.07,0-.06.05-.11l2.26-3.08s.06-.06.08-.06a.11.11,0,0,1,.1,0l.52.39s.06,0,.06.08a.16.16,0,0,1,0,.09L262,423.91s-.07.08-.09.08A.16.16,0,0,1,261.77,424Z" transform="translate(-247.47 -355.65)"/><path class="cls-8" d="M265.3,429l-2.54-1.49a1,1,0,0,1-.21-.15.26.26,0,0,1-.1-.14.25.25,0,0,1,0-.17.92.92,0,0,1,.11-.23l1-1.79a.11.11,0,0,1,.17,0l.58.33a.17.17,0,0,1,.07.08s0,.05,0,.1l-.26.44L266,427l.27-.47s.05-.07.08-.07a.13.13,0,0,1,.1,0l.58.34s.06.05.06.07a.16.16,0,0,1,0,.11L266,428.81a.61.61,0,0,1-.28.28A.55.55,0,0,1,265.3,429Zm-2.14-4.56a.28.28,0,0,1-.15-.05.14.14,0,0,1,0-.11l0-.55c0-.09.06-.13.17-.13a6.26,6.26,0,0,0,.75,0,5,5,0,0,0,.71-.11,4.87,4.87,0,0,0,.61-.18,3.39,3.39,0,0,0,.47-.24c.08,0,.12-.09.13-.12s0-.07-.08-.11l-1.26-.74c-.06,0-.08-.06-.08-.08a.76.76,0,0,1,0-.11l.25-.41c0-.09.11-.11.19-.06l1.88,1.1c.23.14.33.28.32.42a.87.87,0,0,1-.31.47,3.7,3.7,0,0,1-.43.32,3.36,3.36,0,0,1-.5.26,3.52,3.52,0,0,0,.26.69q.17.33.3.57a.12.12,0,0,1-.06.18l-.52.26a.13.13,0,0,1-.1,0,.19.19,0,0,1-.08-.08l-.13-.25-.15-.33-.15-.38a2.64,2.64,0,0,1-.12-.4,6,6,0,0,1-1,.17A5.57,5.57,0,0,1,263.16,424.41Zm2.44,3.24-1.84-1.07-.22.37a.06.06,0,0,0,0,.09l1.73,1a.06.06,0,0,0,.09,0Zm.83-3.15a.12.12,0,0,1,0-.19l.25-.43c0-.06.06-.09.09-.08l.09,0,.76.45.63-1.08c0-.05.06-.07.09-.07l.1,0,.57.33s.07.06.06.09a.23.23,0,0,1,0,.09l-1.63,2.77a.11.11,0,0,1-.17.06l-.57-.34a.11.11,0,0,1-.05-.17l.61-1Z" transform="translate(-247.47 -355.65)"/><path class="cls-8" d="M271.34,431.86,268,430.29l-.2-.12a.42.42,0,0,1-.09-.14.43.43,0,0,1,0-.16,1.86,1.86,0,0,1,.09-.24l.69-1.48a.12.12,0,0,1,.18-.07l.59.27a.13.13,0,0,1,.07.19l-.53,1.13c0,.06,0,.1.05.13l2.87,1.34.07.07s0,.06,0,.11l-.23.49c0,.06-.06.09-.09.08Zm1.84-2.25L268,427.2s-.08-.05-.08-.08a.3.3,0,0,1,0-.11l.21-.46s0-.07.07-.08a.15.15,0,0,1,.11,0l3.59,1.68c.06-.08.13-.2.22-.34l.25-.44.23-.4.12-.24a.34.34,0,0,0,0-.15.21.21,0,0,0-.12-.1L270,425.22l-.09-.06a.15.15,0,0,1,0-.12l.23-.49c0-.05,0-.07.07-.07a.13.13,0,0,1,.1,0l3.28,1.53a.45.45,0,0,1,.27.25.52.52,0,0,1-.05.39c-.06.11-.12.25-.2.4l-.26.49c-.1.17-.19.34-.3.51s-.2.32-.3.46l.78.37a.24.24,0,0,1,.08.06.14.14,0,0,1,0,.12l-.21.46A.12.12,0,0,1,273.18,429.61Z" transform="translate(-247.47 -355.65)"/><path class="cls-8" d="M274.24,430.18a.5.5,0,0,1-.19,0,.13.13,0,0,1-.06-.1l-.16-.52c0-.09,0-.14,0-.16l.13-.06a2.74,2.74,0,0,0,.78-.33,3.66,3.66,0,0,0,.65-.51,3.51,3.51,0,0,0,.5-.65,3.61,3.61,0,0,0,.36-.74.25.25,0,0,1,.08-.13.23.23,0,0,1,.12,0l.58.25a.23.23,0,0,1,.09.06.19.19,0,0,1,0,.1,6.05,6.05,0,0,1-.54,1.08,2.35,2.35,0,0,0,.08.51,4.09,4.09,0,0,0,.18.49,4.34,4.34,0,0,0,.23.43,2.74,2.74,0,0,0,.25.34c0,.07.05.11,0,.14a.32.32,0,0,1-.1.11l-.38.31-.12.06a.21.21,0,0,1-.11-.09l-.22-.28a3.13,3.13,0,0,1-.22-.36,2.65,2.65,0,0,1-.18-.42,3.22,3.22,0,0,1-.14-.44,3.34,3.34,0,0,1-.76.53A3.2,3.2,0,0,1,274.24,430.18Zm1.38,3.6a3,3,0,0,1-.72-.37,2.52,2.52,0,0,1-.49-.49,1.31,1.31,0,0,1-.24-.56,1,1,0,0,1,0-.57,1.06,1.06,0,0,1,.33-.45,1.4,1.4,0,0,1,.55-.26,2.2,2.2,0,0,1,.69-.05,2.9,2.9,0,0,1,.79.18,2.66,2.66,0,0,1,.69.36,2.17,2.17,0,0,1,.51.49,1.7,1.7,0,0,1,.27.56,1.09,1.09,0,0,1,0,.57,1,1,0,0,1-.35.46,1.66,1.66,0,0,1-.57.26,2.35,2.35,0,0,1-.71,0A2.6,2.6,0,0,1,275.62,433.78Zm.68-1.86a1.34,1.34,0,0,0-.79-.09.53.53,0,0,0-.42.31.51.51,0,0,0,.12.48,1.43,1.43,0,0,0,.67.44,1.81,1.81,0,0,0,.42.1,1.14,1.14,0,0,0,.37,0,.63.63,0,0,0,.28-.1.31.31,0,0,0,.16-.18.33.33,0,0,0,0-.24.73.73,0,0,0-.15-.27,1.31,1.31,0,0,0-.27-.25A1.43,1.43,0,0,0,276.3,431.92Zm1-2.55a.12.12,0,0,1-.08-.06.15.15,0,0,1,0-.11l.18-.48c0-.06,0-.1.07-.1h.09l1,.37.39-1.06c0-.06,0-.09.07-.09h.1l.62.23c.05,0,.08.05.08.07a.38.38,0,0,1,0,.1l-1.24,3.35a.11.11,0,0,1-.16.08l-.63-.23a.11.11,0,0,1-.07-.16l.58-1.57Z" transform="translate(-247.47 -355.65)"/><path class="cls-8" d="M283.66,436.11l-3.35-.95a.77.77,0,0,1-.22-.09A.25.25,0,0,1,280,435a.25.25,0,0,1,0-.17.79.79,0,0,1,.05-.24l.43-1.52a.12.12,0,0,1,.17-.11l.63.18c.08,0,.11.08.08.18l-.32,1.14a.09.09,0,0,0,.07.13l2.82.8.08.05a.1.1,0,0,1,0,.11l-.15.53c0,.06,0,.09-.07.09S283.7,436.12,283.66,436.11Zm-2.49-3.73a1.88,1.88,0,0,1-.6-.3,1.65,1.65,0,0,1-.4-.48A1.6,1.6,0,0,1,280,431a1.87,1.87,0,0,1,.06-.66,1.81,1.81,0,0,1,.29-.59,1.71,1.71,0,0,1,.47-.42,1.66,1.66,0,0,1,.6-.21,1.54,1.54,0,0,1,.67.05,1.6,1.6,0,0,1,.61.31,1.64,1.64,0,0,1,.41.5,1.6,1.6,0,0,1,.18.61,1.55,1.55,0,0,1,0,.64,2,2,0,0,1-.3.61,1.69,1.69,0,0,1-.48.41,1.52,1.52,0,0,1-.6.2A2,2,0,0,1,281.17,432.38Zm.68-2.41a.61.61,0,0,0-.3,0,.75.75,0,0,0-.28.11.68.68,0,0,0-.23.22,1,1,0,0,0-.14.31.8.8,0,0,0,0,.34.74.74,0,0,0,.08.3.61.61,0,0,0,.18.24.69.69,0,0,0,.27.14.72.72,0,0,0,.59-.08.9.9,0,0,0,.37-.53.85.85,0,0,0,0-.65A.7.7,0,0,0,281.85,430Zm2.14,4.31-.65-.18s-.07,0-.08-.06,0-.06,0-.11l1.22-4.3a.11.11,0,0,1,.15-.09l.65.18a.12.12,0,0,1,.08.16l-1.22,4.31s0,.08-.05.09A.17.17,0,0,1,284,434.28Z" transform="translate(-247.47 -355.65)"/><path class="cls-8" d="M290.91,434.84l-5.57-1.15c-.06,0-.1,0-.11-.05a.27.27,0,0,1,0-.12l.1-.49a.15.15,0,0,1,.05-.1s.06,0,.11,0l5.57,1.15a.19.19,0,0,1,.1.05s0,.06,0,.11l-.1.5A.13.13,0,0,1,290.91,434.84Zm-3.37,2.28a3.62,3.62,0,0,1-.86-.28,2.16,2.16,0,0,1-.6-.4,1.22,1.22,0,0,1-.33-.48.92.92,0,0,1,0-.52A.89.89,0,0,1,286,435a1.33,1.33,0,0,1,.49-.31,2.43,2.43,0,0,1,.71-.13,3.71,3.71,0,0,1,.9.09,3.62,3.62,0,0,1,.86.28,2.15,2.15,0,0,1,.6.39,1.29,1.29,0,0,1,.33.49.93.93,0,0,1-.2,1,1.29,1.29,0,0,1-.49.31,2.42,2.42,0,0,1-.71.14A3.71,3.71,0,0,1,287.54,437.12Zm2.22-4.95-.08,0-.09,0,.33.17.35.18.34.17.32.14a.19.19,0,0,1,.11.07s0,.07,0,.13l-.23.39a.22.22,0,0,1-.09.1.27.27,0,0,1-.12,0c-.3-.12-.62-.28-1-.46s-.69-.37-1-.57c-.37.08-.76.14-1.16.19a9.71,9.71,0,0,1-1.2,0,.21.21,0,0,1-.13,0,.15.15,0,0,1,0-.1l-.06-.48c0-.11,0-.17.13-.17a12.5,12.5,0,0,0,1.61-.13,7.46,7.46,0,0,0,1.23-.29.1.1,0,0,0,.08-.05s0,0-.07,0l-2.13-.44a.19.19,0,0,1-.1-.05.2.2,0,0,1,0-.11l.1-.5a.15.15,0,0,1,.05-.1h.1l3.08.63a.83.83,0,0,1,.44.22.37.37,0,0,1,.11.31.73.73,0,0,1-.28.41A2.57,2.57,0,0,1,289.76,432.17Zm-1.86,3.19a2,2,0,0,0-.88,0q-.34.09-.39.3a.33.33,0,0,0,0,.21.8.8,0,0,0,.2.22,2.58,2.58,0,0,0,.34.19,2.74,2.74,0,0,0,.48.14,2.18,2.18,0,0,0,.49.06,2.13,2.13,0,0,0,.39,0,.85.85,0,0,0,.27-.12.47.47,0,0,0,.12-.18c0-.14,0-.28-.24-.43A1.9,1.9,0,0,0,287.9,435.36Z" transform="translate(-247.47 -355.65)"/><path class="cls-8" d="M295.15,435.29h-.84l-.92-.07-1-.12-1-.14c-.06,0-.09,0-.1-.05a.18.18,0,0,1,0-.11l.06-.47a.19.19,0,0,1,0-.1s.06,0,.11,0l.28,0,.27,0,.27-2-.45-.06c-.1,0-.14-.07-.13-.17l.06-.46a.14.14,0,0,1,.17-.12l3.2.43a.12.12,0,0,1,.11.16l-.06.47c0,.1-.06.14-.15.13l-.38-.06-.27,2h.67c.07,0,.11,0,.11.08v.48a.19.19,0,0,1,0,.13Zm-.95,3a2.62,2.62,0,0,1-.78-.2,2.26,2.26,0,0,1-.59-.36,1.44,1.44,0,0,1-.36-.47.94.94,0,0,1-.08-.55.91.91,0,0,1,.22-.49,1.41,1.41,0,0,1,.47-.35,2,2,0,0,1,.67-.19,3,3,0,0,1,1.56.21,2.06,2.06,0,0,1,.6.35,1.55,1.55,0,0,1,.39.47.93.93,0,0,1-.14,1,1.43,1.43,0,0,1-.5.36,2.59,2.59,0,0,1-.68.19A2.92,2.92,0,0,1,294.2,438.27Zm-.62-3.79.27-2-.59-.08-.27,2,.29,0Zm.87,1.93a1.77,1.77,0,0,0-.45,0,1.62,1.62,0,0,0-.35.09.76.76,0,0,0-.23.15.37.37,0,0,0-.1.21.48.48,0,0,0,.23.42,1.68,1.68,0,0,0,.75.27,2.09,2.09,0,0,0,.43,0,1.2,1.2,0,0,0,.36-.08.61.61,0,0,0,.25-.14.32.32,0,0,0,.11-.19.39.39,0,0,0-.05-.23.66.66,0,0,0-.2-.21,1.29,1.29,0,0,0-.33-.18A1.84,1.84,0,0,0,294.45,436.41Zm.7-2a.19.19,0,0,1-.1,0s0,0,0-.11l.06-.42c0-.05,0-.08.05-.1a.15.15,0,0,1,.1,0l.65.09,0-.31-.65-.09a.13.13,0,0,1-.1,0s0-.06,0-.11l.06-.41c0-.06,0-.09,0-.11h.1l.65.09.13-1c0-.06,0-.09.06-.1a.11.11,0,0,1,.1,0l.65.09c.06,0,.09,0,.1.05V432l-.49,3.65c0,.09-.06.14-.15.12l-.65-.09a.11.11,0,0,1-.11-.14l.14-1Z" transform="translate(-247.47 -355.65)"/><path class="cls-8" d="M298,437.2a.39.39,0,0,1-.14.05s-.07,0-.1-.09l-.28-.5a.18.18,0,0,1,0-.14.18.18,0,0,1,.08-.09,5.24,5.24,0,0,0,1.67-1.26,3.57,3.57,0,0,0,.81-1.64q0-.15-.09-.15l-1.84-.13c-.06,0-.1,0-.11,0a.31.31,0,0,1,0-.11l0-.52a.19.19,0,0,1,0-.11.15.15,0,0,1,.1,0l2.41.16a.53.53,0,0,1,.43.17.71.71,0,0,1,.05.46,4.53,4.53,0,0,1-.32,1.2,4.76,4.76,0,0,1-.63,1.09,6.08,6.08,0,0,1-.91.92A5.81,5.81,0,0,1,298,437.2Zm5.35-1.59-.82-.06-.22,3.25a.14.14,0,0,1,0,.11l-.1,0-.66-.05a.16.16,0,0,1-.11,0,.23.23,0,0,1,0-.11l.44-6.42a.13.13,0,0,1,0-.1.12.12,0,0,1,.11,0l.67,0c.05,0,.08,0,.09,0s0,.05,0,.1l-.16,2.38.82.06.09,0s0,.05,0,.12l0,.53c0,.05,0,.09-.05.1A.15.15,0,0,1,303.3,435.61Z" transform="translate(-247.47 -355.65)"/><path class="cls-8" d="M305.89,437h-.63c-.1,0-.14,0-.14-.15V436h-.73l-.71,0a.11.11,0,0,1-.1,0,.27.27,0,0,1,0-.11v-.47a.16.16,0,0,1,0-.11s0,0,.1,0c.63,0,1.27,0,1.91,0s1.27-.06,1.89-.13h.13s0,.05,0,.1l.05.47c0,.06,0,.09,0,.11a.23.23,0,0,1-.1,0l-.77.08-.79.06v.89A.12.12,0,0,1,305.89,437Zm-.24-2a2,2,0,0,1-.62-.1,1.77,1.77,0,0,1-.49-.27,1.3,1.3,0,0,1-.32-.42,1.24,1.24,0,0,1-.11-.52,1.08,1.08,0,0,1,.12-.5,1.23,1.23,0,0,1,.33-.39,1.58,1.58,0,0,1,.5-.26,2,2,0,0,1,.62-.09,2.06,2.06,0,0,1,.62.1,1.71,1.71,0,0,1,.48.27,1.27,1.27,0,0,1,.32.41,1.19,1.19,0,0,1,0,1,1.26,1.26,0,0,1-.33.4,1.53,1.53,0,0,1-.49.26A2.06,2.06,0,0,1,305.65,435Zm3.19,4-3.85,0-.23,0a.28.28,0,0,1-.14-.09.52.52,0,0,1-.07-.15,1.85,1.85,0,0,1,0-.25v-1c0-.09,0-.14.13-.14h.65a.13.13,0,0,1,.14.14V438c0,.07,0,.1.11.1l3.28,0,.09,0s0,.05,0,.11v.54c0,.06,0,.1,0,.11Zm-3.17-5.77a.77.77,0,0,0-.49.15.45.45,0,0,0-.2.36.47.47,0,0,0,.19.39.76.76,0,0,0,.49.16.77.77,0,0,0,.49-.15.47.47,0,0,0,.19-.38.44.44,0,0,0-.19-.37A.79.79,0,0,0,305.67,433.17Zm3.05,4.37H308l-.1,0a.27.27,0,0,1,0-.11v-.52h-1a.17.17,0,0,1-.1,0s0,0,0-.1v-.48c0-.06,0-.1,0-.11a.16.16,0,0,1,.1,0h1l0-3.69a.16.16,0,0,1,0-.11s.05,0,.1,0h.68a.13.13,0,0,1,.1,0,.27.27,0,0,1,0,.11l0,4.94a.16.16,0,0,1,0,.11Z" transform="translate(-247.47 -355.65)"/><path class="cls-8" d="M312.05,438.16h-.13s0,0-.05-.12l0-.49a.18.18,0,0,1,0-.13.75.75,0,0,1,.07-.12l.88-1.29a8.62,8.62,0,0,0,.7-1.17,1.59,1.59,0,0,0,.19-.71.66.66,0,0,0-.17-.44.62.62,0,0,0-.42-.17,1.31,1.31,0,0,0-.51.09,3.37,3.37,0,0,0-.56.32c-.06,0-.1.05-.12,0a.09.09,0,0,1-.06-.07l-.16-.61a.14.14,0,0,1,0-.09.35.35,0,0,1,.09-.1,1.81,1.81,0,0,1,.27-.18,1.87,1.87,0,0,1,.32-.15,2.07,2.07,0,0,1,.33-.1,1.81,1.81,0,0,1,.29,0,1.76,1.76,0,0,1,.61.05,1.37,1.37,0,0,1,.51.26,1.33,1.33,0,0,1,.35.45,1.64,1.64,0,0,1,.17.66,1.7,1.7,0,0,1-.09.66,3.73,3.73,0,0,1-.28.66,6.34,6.34,0,0,1-.37.62l-.37.54c-.06.11-.15.23-.24.36s-.18.24-.26.35l1.75-.12c.07,0,.11,0,.12,0a.33.33,0,0,1,0,.13l0,.53a.23.23,0,0,1,0,.13s-.06,0-.12,0Z" transform="translate(-247.47 -355.65)"/><path class="cls-8" d="M317.26,437.8a1.43,1.43,0,0,1-.78-.12,1.49,1.49,0,0,1-.6-.5,3,3,0,0,1-.4-.84,6.53,6.53,0,0,1-.22-1.12c0-.19,0-.38,0-.59s0-.42,0-.63a4.13,4.13,0,0,1,.13-.61,1.87,1.87,0,0,1,.26-.53,1.38,1.38,0,0,1,.41-.39,1.47,1.47,0,0,1,.61-.2,1.65,1.65,0,0,1,.64.06,1.54,1.54,0,0,1,.49.3,1.84,1.84,0,0,1,.36.46,3.64,3.64,0,0,1,.25.57,4.57,4.57,0,0,1,.16.61c0,.21.07.4.09.58a5.65,5.65,0,0,1,0,1.15,2.7,2.7,0,0,1-.22.9,1.47,1.47,0,0,1-.46.62A1.44,1.44,0,0,1,317.26,437.8Zm-.5-4.63a.67.67,0,0,0-.3.13.76.76,0,0,0-.22.33,2.3,2.3,0,0,0-.11.6,5.83,5.83,0,0,0,0,.89,5.44,5.44,0,0,0,.15.89,2,2,0,0,0,.24.55.74.74,0,0,0,.28.28.63.63,0,0,0,.33.06.64.64,0,0,0,.29-.13.7.7,0,0,0,.23-.33,2.59,2.59,0,0,0,.11-.59,6,6,0,0,0,0-.9,5.19,5.19,0,0,0-.16-.88,2,2,0,0,0-.23-.56.7.7,0,0,0-.29-.28A.59.59,0,0,0,316.76,433.17Z" transform="translate(-247.47 -355.65)"/><path class="cls-8" d="M319.33,437.49h-.13s-.05,0-.06-.11l-.07-.49a.19.19,0,0,1,0-.13l.06-.12.78-1.36a9.09,9.09,0,0,0,.61-1.22,1.56,1.56,0,0,0,.13-.72.65.65,0,0,0-.21-.42.56.56,0,0,0-.43-.14,1.33,1.33,0,0,0-.5.13,3.2,3.2,0,0,0-.53.35c-.05.05-.1.07-.12.06a.09.09,0,0,1-.06-.07l-.21-.59s0-.07,0-.09a.31.31,0,0,1,.08-.1,1.33,1.33,0,0,1,.26-.21,3.07,3.07,0,0,1,.31-.17l.32-.13.29-.06a1.78,1.78,0,0,1,.61,0,1.34,1.34,0,0,1,.52.22,1.24,1.24,0,0,1,.39.43,1.68,1.68,0,0,1,.22.63,1.7,1.7,0,0,1,0,.67,4.15,4.15,0,0,1-.22.68,6.59,6.59,0,0,1-.33.65l-.32.57c-.06.11-.13.23-.22.37s-.16.26-.23.37l1.74-.25c.06,0,.11,0,.12,0a.27.27,0,0,1,.05.13l.07.52a.32.32,0,0,1,0,.14.23.23,0,0,1-.12.05Z" transform="translate(-247.47 -355.65)"/><path class="cls-8" d="M325.64,434.83a1.94,1.94,0,0,1,0,.68,1.43,1.43,0,0,1-.26.59,1.67,1.67,0,0,1-.52.46,2.48,2.48,0,0,1-.78.28,5.07,5.07,0,0,1-.6.06,2.52,2.52,0,0,1-.57,0,.18.18,0,0,1-.13-.06.21.21,0,0,1,0-.12l0-.56a.19.19,0,0,1,0-.13s.07,0,.14,0l.38,0h.37a1.8,1.8,0,0,0,.45-.09,1.2,1.2,0,0,0,.37-.2.74.74,0,0,0,.24-.31.68.68,0,0,0,0-.43.57.57,0,0,0-.11-.27.72.72,0,0,0-.25-.21,1,1,0,0,0-.37-.12,1.6,1.6,0,0,0-.48,0l-.35.07c-.06,0-.09,0-.11,0a.19.19,0,0,1,0-.11l-.11-.56a.23.23,0,0,1,0-.12.15.15,0,0,1,.1-.05l.34-.06a1.5,1.5,0,0,0,.3-.1,1.07,1.07,0,0,0,.28-.19.9.9,0,0,0,.21-.27.55.55,0,0,0,0-.34.63.63,0,0,0-.26-.41.7.7,0,0,0-.55-.07,1.93,1.93,0,0,0-.48.16,3.63,3.63,0,0,0-.44.25.24.24,0,0,1-.14.06s-.06,0-.08-.1L322,432c0-.05,0-.08,0-.11a.3.3,0,0,1,.1-.1,5.54,5.54,0,0,1,.53-.3,2.47,2.47,0,0,1,.56-.19,2.32,2.32,0,0,1,.59,0,1.72,1.72,0,0,1,.56.15,1.13,1.13,0,0,1,.45.36,1.27,1.27,0,0,1,.26.6,1.07,1.07,0,0,1,0,.4,1.9,1.9,0,0,1-.13.38,1.46,1.46,0,0,1-.23.34.47.47,0,1,0,.53.68A1.23,1.23,0,0,1,325.64,434.83Z" transform="translate(-247.47 -355.65)"/><path class="cls-8" d="M327.15,436.63a.55.55,0,0,1-.45-.08.66.66,0,0,1-.27-.4.67.67,0,0,1,.07-.48.57.57,0,0,1,.38-.26.55.55,0,0,1,.45.08.66.66,0,0,1,.27.4.67.67,0,0,1-.07.48A.55.55,0,0,1,327.15,436.63Z" transform="translate(-247.47 -355.65)"/><path class="cls-8" d="M329.63,435.59a1.41,1.41,0,0,1-.79,0,1.5,1.5,0,0,1-.66-.41,2.93,2.93,0,0,1-.51-.78,6.46,6.46,0,0,1-.38-1.08c0-.18-.08-.38-.12-.58a4.46,4.46,0,0,1-.05-.63,3.18,3.18,0,0,1,0-.62,1.75,1.75,0,0,1,.18-.56,1.55,1.55,0,0,1,.36-.45,1.54,1.54,0,0,1,1.21-.3,1.46,1.46,0,0,1,.53.22,2,2,0,0,1,.42.41,4,4,0,0,1,.33.53c.09.19.17.39.24.58a5.12,5.12,0,0,1,.17.57,6.14,6.14,0,0,1,.18,1.13,3,3,0,0,1-.08.92,1.57,1.57,0,0,1-.38.68A1.37,1.37,0,0,1,329.63,435.59Zm-1.13-4.51a.53.53,0,0,0-.28.16.76.76,0,0,0-.18.36,2.33,2.33,0,0,0,0,.61,6.48,6.48,0,0,0,.15.88,5.54,5.54,0,0,0,.29.85,1.88,1.88,0,0,0,.3.52.86.86,0,0,0,.33.24.69.69,0,0,0,.32,0,.55.55,0,0,0,.28-.17.67.67,0,0,0,.17-.36,1.88,1.88,0,0,0,0-.6,5.2,5.2,0,0,0-.16-.88,4.44,4.44,0,0,0-.28-.85,2.39,2.39,0,0,0-.3-.52.69.69,0,0,0-.33-.24A.5.5,0,0,0,328.5,431.08Z" transform="translate(-247.47 -355.65)"/><path class="cls-8" d="M333.87,433.1l.29,1a.3.3,0,0,1,0,.15.2.2,0,0,1-.12.07l-.53.16c-.07,0-.12,0-.14,0a.4.4,0,0,1-.06-.13l-.29-1-1.94.58a.31.31,0,0,1-.13,0,.21.21,0,0,1-.06-.1l-.14-.48a.2.2,0,0,1,0-.13.5.5,0,0,0,0-.13c.16-.61.33-1.24.49-1.87s.33-1.24.52-1.85a.19.19,0,0,1,0-.09.19.19,0,0,1,.1-.05l.58-.17c.08,0,.12,0,.13,0a.23.23,0,0,1,0,.1l.93,3.1.52-.16a.17.17,0,0,1,.12,0s0,.05.06.12l.16.53a.24.24,0,0,1,0,.14l-.11.05Zm-2.21-.24,1.13-.33-.55-1.85Z" transform="translate(-247.47 -355.65)"/><path class="cls-8" d="M335.8,434.25a.55.55,0,0,1-.47,0,.63.63,0,0,1-.3-.37.59.59,0,0,1,0-.47.54.54,0,0,1,.35-.31.57.57,0,0,1,.46,0,.59.59,0,0,1,.3.37.62.62,0,0,1,0,.48A.53.53,0,0,1,335.8,434.25Z" transform="translate(-247.47 -355.65)"/><path class="cls-8" d="M337.87,433a.09.09,0,0,1-.1,0s0,0-.07-.09l-1.38-3.74-.24.52c0,.09-.09.12-.15.08l-.52-.31s-.06,0-.06-.07a.3.3,0,0,1,0-.11L336,428a.25.25,0,0,1,.13-.12l.41-.15a.33.33,0,0,1,.17,0,.43.43,0,0,1,.1.19l1.75,4.72a.23.23,0,0,1,0,.11s0,.05-.08.07Z" transform="translate(-247.47 -355.65)"/><path class="cls-8" d="M342.14,430l.4.94a.41.41,0,0,1,0,.15.26.26,0,0,1-.12.08l-.5.21c-.07,0-.12,0-.14,0a.31.31,0,0,1-.08-.12l-.4-.94-1.86.79a.26.26,0,0,1-.13,0s0,0-.07-.1l-.19-.45a.24.24,0,0,1,0-.14.5.5,0,0,1,0-.12l.27-1.91c.09-.65.19-1.28.31-1.91a.19.19,0,0,1,0-.09.18.18,0,0,1,.08-.06l.57-.24c.07,0,.11,0,.13,0l.05.11,1.26,3,.5-.21c.07,0,.11,0,.13,0s0,0,.07.12l.21.5c0,.07,0,.12,0,.13s-.05,0-.1.07Zm-2.22,0,1.08-.46-.75-1.77Z" transform="translate(-247.47 -355.65)"/><path class="cls-8" d="M345.37,426.79a1.25,1.25,0,0,1-.19.58,1,1,0,0,1-.42.39,1.34,1.34,0,0,1-.37.1l-.4.05a2.25,2.25,0,0,0-.38,0,.77.77,0,0,0-.29.07.49.49,0,0,0-.21.25,1.72,1.72,0,0,0-.14.4c0,.06,0,.09-.05.09a.28.28,0,0,1-.13-.06l-.4-.27a.07.07,0,0,1-.06-.06s0-.05,0-.07a1.19,1.19,0,0,1,.2-.59,1.16,1.16,0,0,1,.47-.4,1.37,1.37,0,0,1,.36-.11l.4-.05.37,0a.7.7,0,0,0,.25-.06.33.33,0,0,0,.13-.11l.09-.16.06-.18.05-.15c0-.05,0-.08.05-.09s.05,0,.1,0l.46.26s.06,0,.06.06A.28.28,0,0,1,345.37,426.79Z" transform="translate(-247.47 -355.65)"/><path class="cls-8" d="M347.14,428.86a.28.28,0,0,1-.12.05s-.06,0-.09-.08l-.25-.44a.28.28,0,0,1,0-.13.69.69,0,0,1,0-.13l.24-1.55a9,9,0,0,0,.13-1.35,1.46,1.46,0,0,0-.13-.72.69.69,0,0,0-.35-.33.6.6,0,0,0-.45,0,1.48,1.48,0,0,0-.42.3,3.53,3.53,0,0,0-.37.52c0,.06-.06.1-.09.1s-.05,0-.08-.05l-.41-.48a.12.12,0,0,1,0-.08.31.31,0,0,1,0-.12,1.46,1.46,0,0,1,.17-.29l.22-.27.26-.23a1.48,1.48,0,0,1,.25-.16,1.52,1.52,0,0,1,.57-.21,1.27,1.27,0,0,1,1.08.27,1.6,1.6,0,0,1,.43.52,1.73,1.73,0,0,1,.21.64,4.25,4.25,0,0,1,0,.72c0,.24,0,.48-.07.72s-.07.45-.1.64,0,.27-.07.42-.06.31-.09.44l1.53-.86a.18.18,0,0,1,.13,0,.31.31,0,0,1,.08.1l.26.46c0,.06.05.11,0,.13s0,.06-.09.09Z" transform="translate(-247.47 -355.65)"/><path class="cls-8" d="M351.77,426.24a1.39,1.39,0,0,1-.76.24,1.59,1.59,0,0,1-.75-.18,2.69,2.69,0,0,1-.73-.58,5.3,5.3,0,0,1-.7-.91,5.75,5.75,0,0,1-.3-.51,4.23,4.23,0,0,1-.25-.58,2.94,2.94,0,0,1-.16-.6,1.94,1.94,0,0,1,0-.59,1.15,1.15,0,0,1,.2-.53,1.38,1.38,0,0,1,.45-.45,1.4,1.4,0,0,1,.6-.23,1.37,1.37,0,0,1,.57.05,2,2,0,0,1,.53.25,3.64,3.64,0,0,1,.48.4,3.72,3.72,0,0,1,.41.48,5.46,5.46,0,0,1,.34.48,5.81,5.81,0,0,1,.53,1,2.71,2.71,0,0,1,.21.91,1.48,1.48,0,0,1-.14.76A1.39,1.39,0,0,1,351.77,426.24Zm-2.51-3.93a.64.64,0,0,0-.21.25.7.7,0,0,0-.05.4,2.12,2.12,0,0,0,.17.58,4.74,4.74,0,0,0,.42.78,6,6,0,0,0,.54.73,1.91,1.91,0,0,0,.46.39.73.73,0,0,0,.38.12.56.56,0,0,0,.31-.09.61.61,0,0,0,.21-.24.73.73,0,0,0,.05-.4,2,2,0,0,0-.16-.58,6.56,6.56,0,0,0-.43-.79,5.63,5.63,0,0,0-.53-.72,2.12,2.12,0,0,0-.46-.39.72.72,0,0,0-.38-.13A.59.59,0,0,0,349.26,422.31Z" transform="translate(-247.47 -355.65)"/><path class="cls-8" d="M353.53,425a.4.4,0,0,1-.12.07s-.06,0-.1-.08l-.29-.4a.21.21,0,0,1,0-.12.33.33,0,0,1,0-.14l.06-1.56a9.25,9.25,0,0,0,0-1.36,1.69,1.69,0,0,0-.22-.7.63.63,0,0,0-.38-.28.57.57,0,0,0-.45.08,1.35,1.35,0,0,0-.38.34,3.21,3.21,0,0,0-.3.56c0,.07-.06.11-.09.11s-.05,0-.08,0l-.46-.43a.1.1,0,0,1-.05-.08s0-.06,0-.13a1.94,1.94,0,0,1,.14-.3,1.81,1.81,0,0,1,.19-.29,1.88,1.88,0,0,1,.22-.26c.08-.08.16-.14.23-.2a2,2,0,0,1,.54-.27,1.23,1.23,0,0,1,.57,0,1.25,1.25,0,0,1,.54.19,1.67,1.67,0,0,1,.49.47,1.71,1.71,0,0,1,.28.61,3.93,3.93,0,0,1,.11.7,6,6,0,0,1,0,.73c0,.24,0,.46,0,.65s0,.27,0,.43a3.49,3.49,0,0,0,0,.44l1.41-1a.14.14,0,0,1,.12,0,.26.26,0,0,1,.1.09l.31.43a.22.22,0,0,1,.06.12.22.22,0,0,1-.08.1Z" transform="translate(-247.47 -355.65)"/><path class="cls-8" d="M357.85,420.15l.65.78c.05.06.08.1.08.13s0,.06-.08.11l-.43.35c-.05.05-.1.07-.13.06l-.11-.09-.65-.78L355.63,422a.24.24,0,0,1-.11.06s-.06,0-.1-.06l-.32-.38a.21.21,0,0,1-.05-.13.5.5,0,0,1,0-.12c-.1-.63-.19-1.27-.3-1.91s-.18-1.28-.25-1.91a.16.16,0,0,1,0-.1s0-.05.07-.08l.47-.4c.06-.05.1-.06.12,0a.6.6,0,0,1,.08.08l2.07,2.48.42-.35a.24.24,0,0,1,.11-.06s.06,0,.11.09l.35.42q.08.09.06.12a.28.28,0,0,1-.08.09Zm-2.13.65.91-.75-1.23-1.48Z" transform="translate(-247.47 -355.65)"/><path class="cls-8" d="M360.11,420.37a.56.56,0,0,1-.44.16.61.61,0,0,1-.43-.21.64.64,0,0,1-.18-.44.59.59,0,0,1,.19-.43.57.57,0,0,1,.43-.15.65.65,0,0,1,.44.21.63.63,0,0,1,.17.44A.54.54,0,0,1,360.11,420.37Z" transform="translate(-247.47 -355.65)"/><path class="cls-8" d="M361.77,418.11a1.4,1.4,0,0,1-1.45.41,2.75,2.75,0,0,1-.85-.38,6.11,6.11,0,0,1-.89-.72,5.89,5.89,0,0,1-.41-.44,3.14,3.14,0,0,1-.38-.5,2.81,2.81,0,0,1-.29-.54,2.07,2.07,0,0,1-.15-.58,1.6,1.6,0,0,1,.07-.57,1.52,1.52,0,0,1,.34-.54,1.47,1.47,0,0,1,.53-.36,1.52,1.52,0,0,1,.56-.08,1.94,1.94,0,0,1,.58.12,3.25,3.25,0,0,1,.56.28,4.67,4.67,0,0,1,.51.36c.17.13.31.26.45.39a6.31,6.31,0,0,1,.75.86,3,3,0,0,1,.41.83,1.58,1.58,0,0,1,.05.77A1.5,1.5,0,0,1,361.77,418.11Zm-3.35-3.23a.54.54,0,0,0-.15.29.72.72,0,0,0,0,.4,2.73,2.73,0,0,0,.3.53,5.42,5.42,0,0,0,.6.66,5.89,5.89,0,0,0,.69.58,2,2,0,0,0,.53.27.71.71,0,0,0,.4,0,.64.64,0,0,0,.29-.16.67.67,0,0,0,.15-.29.7.7,0,0,0,0-.39,2,2,0,0,0-.29-.53,6.63,6.63,0,0,0-.61-.67,5.86,5.86,0,0,0-.68-.57,2.34,2.34,0,0,0-.54-.28.71.71,0,0,0-.4,0A.56.56,0,0,0,358.42,414.88Z" transform="translate(-247.47 -355.65)"/><path class="cls-8" d="M364,413.61l.79.64c.06.05.1.09.1.11s0,.07-.06.13l-.35.43c0,.06-.08.08-.11.08l-.13-.07-.79-.65-1.28,1.57s-.07.08-.09.08-.06,0-.11-.05l-.39-.31a.28.28,0,0,1-.08-.11.56.56,0,0,0,0-.12c-.21-.6-.42-1.21-.65-1.82s-.43-1.21-.61-1.82a.22.22,0,0,1,0-.1.93.93,0,0,1,.05-.1l.39-.47c.05-.06.09-.08.11-.07l.1.07,2.5,2,.35-.43c0-.05.07-.08.09-.08a.26.26,0,0,1,.12.07l.42.35c.07,0,.1.08.09.1s0,.06-.06.11Zm-2,1.05.74-.92-1.49-1.21Z" transform="translate(-247.47 -355.65)"/><path class="cls-8" d="M366.3,413.35a.55.55,0,0,1-.4.24.64.64,0,0,1-.46-.12.62.62,0,0,1-.27-.4.56.56,0,0,1,.1-.45.55.55,0,0,1,.4-.24.6.6,0,0,1,.46.12.62.62,0,0,1,.27.4A.56.56,0,0,1,366.3,413.35Z" transform="translate(-247.47 -355.65)"/><path class="cls-8" d="M367.25,411s-.05.07-.07.07-.07,0-.12,0l-3.4-2.07.14.56c0,.1,0,.15-.07.15l-.6.09a.08.08,0,0,1-.09,0,.28.28,0,0,1,0-.12l-.33-1.39a.24.24,0,0,1,0-.17l.23-.38c.05-.08.09-.12.12-.13a.55.55,0,0,1,.19.09l4.3,2.62a.15.15,0,0,1,.08.08.13.13,0,0,1,0,.1Z" transform="translate(-247.47 -355.65)"/><path class="cls-8" d="M368.45,405.3a1.78,1.78,0,0,1,.54.39,1.51,1.51,0,0,1,.33.56,1.73,1.73,0,0,1,.07.69,2.68,2.68,0,0,1-.24.8,3.39,3.39,0,0,1-.3.51,2.12,2.12,0,0,1-.38.44.15.15,0,0,1-.12.07.28.28,0,0,1-.12-.05l-.47-.29c-.06,0-.09-.07-.09-.1a.19.19,0,0,1,.07-.12l.26-.29a1.43,1.43,0,0,0,.22-.3,1.92,1.92,0,0,0,.19-.41,1.52,1.52,0,0,0,.06-.42.81.81,0,0,0-.12-.37.85.85,0,0,0-.33-.28.68.68,0,0,0-.29-.06.77.77,0,0,0-.32.07,1.2,1.2,0,0,0-.3.23,1.55,1.55,0,0,0-.27.4l-.15.33s-.05.08-.07.08a.19.19,0,0,1-.12,0l-.51-.25c-.06,0-.1-.05-.1-.07a.17.17,0,0,1,0-.11l.15-.31a1.32,1.32,0,0,0,.09-.3,1.3,1.3,0,0,0,0-.34,1.15,1.15,0,0,0-.1-.33.51.51,0,0,0-.25-.23.58.58,0,0,0-.48,0,.7.7,0,0,0-.39.4,1.69,1.69,0,0,0-.15.48,2.32,2.32,0,0,0-.05.51.23.23,0,0,1,0,.14s-.06,0-.12,0l-.56-.19a.19.19,0,0,1-.09-.05.33.33,0,0,1,0-.15,4.07,4.07,0,0,1,.06-.6,2.38,2.38,0,0,1,.18-.57,2.17,2.17,0,0,1,.32-.49,2,2,0,0,1,.46-.37,1.29,1.29,0,0,1,.55-.15,1.38,1.38,0,0,1,.64.14,1.24,1.24,0,0,1,.32.23,1.55,1.55,0,0,1,.24.33,1.64,1.64,0,0,1,.14.39,2,2,0,0,1,0,.42,1.61,1.61,0,0,1,.82-.45A1.18,1.18,0,0,1,368.45,405.3Z" transform="translate(-247.47 -355.65)"/><path class="cls-9" d="M287.1,419.6l-3.28,5.58-.93-.27.24-7.66.83.24-.27,6.52,3.31-5.64.86.25-.22,6.59,3.26-5.71.79.23-3.86,6.61-.95-.28Z" transform="translate(-247.47 -355.65)"/><polygon class="cls-10" points="39.41 70.41 40.36 70.69 44.22 64.08 43.43 63.85 40.16 69.56 40.38 62.97 39.53 62.72 36.22 68.36 36.48 61.84 35.66 61.6 35.42 69.26 36.35 69.53 39.63 63.95 39.41 70.41"/><path class="cls-9" d="M295.77,427.88l-4.54-.78,1.26-7.33,4.54.78-.13.72-3.68-.63-.39,2.24,3.42.59-.12.72-3.42-.59-.5,2.9,3.68.63Z" transform="translate(-247.47 -355.65)"/><polygon class="cls-10" points="48.42 71.48 44.74 70.85 45.24 67.95 48.66 68.54 48.78 67.82 45.36 67.23 45.74 64.99 49.43 65.62 49.55 64.9 45.02 64.12 43.76 71.44 48.29 72.22 48.42 71.48"/><path class="cls-9" d="M299.87,428.25l-2.5-.22.66-7.39,2.47.22a3,3,0,0,1,.9.21,2.09,2.09,0,0,1,.64.42,1.46,1.46,0,0,1,.36.56,1.62,1.62,0,0,1,.08.66,1.65,1.65,0,0,1-.45,1,1.81,1.81,0,0,1-1,.54v0a2.08,2.08,0,0,1,.67.26,1.77,1.77,0,0,1,.49.45,1.71,1.71,0,0,1,.29.59,2.07,2.07,0,0,1,.06.71,2,2,0,0,1-.22.78,2,2,0,0,1-.51.66,2.12,2.12,0,0,1-.82.42A2.78,2.78,0,0,1,299.87,428.25Zm0-3.67-1.36-.12-.26,2.91,1.54.14a1.72,1.72,0,0,0,1.24-.28,1.4,1.4,0,0,0,.51-1,1.36,1.36,0,0,0-.35-1.12A2.07,2.07,0,0,0,299.91,424.58Zm.3-3-1.39-.13-.21,2.32,1.29.11a2,2,0,0,0,1.16-.17,1.06,1.06,0,0,0,.5-.91,1,1,0,0,0-.29-.87A1.89,1.89,0,0,0,300.21,421.56Z" transform="translate(-247.47 -355.65)"/><path class="cls-10" d="M301,428.2a2.24,2.24,0,0,0,.81-.43,1.84,1.84,0,0,0,.52-.66,2.41,2.41,0,0,0,.22-.77,2.11,2.11,0,0,0-.06-.72,1.71,1.71,0,0,0-.29-.59,1.93,1.93,0,0,0-.5-.44,2,2,0,0,0-.67-.27v0a1.86,1.86,0,0,0,1-.53,1.64,1.64,0,0,0,.44-1,1.47,1.47,0,0,0-.08-.66,1.35,1.35,0,0,0-.36-.56,2,2,0,0,0-.64-.42,2.84,2.84,0,0,0-.9-.21l-2.47-.22-.66,7.39,2.5.23A3.25,3.25,0,0,0,301,428.2Zm.26-3.08a1.36,1.36,0,0,1,.34,1.12,1.4,1.4,0,0,1-.51,1,1.66,1.66,0,0,1-1.24.28l-1.53-.13.26-2.92,1.35.13A2,2,0,0,1,301.24,425.12Zm0-3.18a.93.93,0,0,1,.29.87,1,1,0,0,1-.5.91,2,2,0,0,1-1.15.18l-1.29-.12.21-2.31,1.38.12A1.86,1.86,0,0,1,301.27,421.94Z" transform="translate(-247.47 -355.65)"/><path class="cls-9" d="M308.78,423.71a3.73,3.73,0,0,0,.4.39c.16.12.32.24.49.35s.34.22.51.31l.5.24-.45.57a7.1,7.1,0,0,1-1-.58,5.94,5.94,0,0,1-.89-.76,6.64,6.64,0,0,1-1.19,1,6.4,6.4,0,0,1-1.19.64l-.52-.52a6.48,6.48,0,0,0,1.11-.57,5.89,5.89,0,0,0,1-.75,4.83,4.83,0,0,0,.72-.86,2.73,2.73,0,0,0,.41-.91l-.94.05-1,0-.81,0,0-.66,1.36,0,1.13,0,1.19,0a3.75,3.75,0,0,1-.26,1.11A5.45,5.45,0,0,1,308.78,423.71Zm3.53,5.45-5.08.15-.09-3.1.76,0,0,.7,3.57-.1,0-.75.75,0Zm-.77-.64,0-1.1-3.57.1,0,1.1ZM310,423.73l0-.69,1.43,0-.05-1.81.76,0,.13,4.39-.77,0-.05-1.89Z" transform="translate(-247.47 -355.65)"/><path class="cls-10" d="M308,428.62l0-1.1,3.57-.1,0,1.1Zm4.25-2.6-.75,0,0,.75-3.57.1,0-.7-.76,0,.09,3.1,5.08-.15Zm-.83-2.33.05,1.89.77,0-.13-4.39-.76,0,.05,1.81-1.43,0,0,.69Zm-2.05-1a3.75,3.75,0,0,0,.26-1.11l-1.19,0-1.13,0-1.36,0,0,.66.81,0,1,0,.94-.05a2.73,2.73,0,0,1-.41.91,4.83,4.83,0,0,1-.72.86,5.89,5.89,0,0,1-1,.75,6.48,6.48,0,0,1-1.11.57l.52.52a6.4,6.4,0,0,0,1.19-.64,6.64,6.64,0,0,0,1.19-1,5.94,5.94,0,0,0,.89.76,7.1,7.1,0,0,0,1,.58l.45-.57-.5-.24c-.17-.09-.34-.2-.51-.31s-.33-.23-.49-.35a3.73,3.73,0,0,1-.4-.39A5.45,5.45,0,0,0,309.34,422.71Z" transform="translate(-247.47 -355.65)"/><path class="cls-9" d="M318.8,424.06c0-.45,0-.9,0-1.37s-.06-.93-.12-1.37l-4.47.61-.09-.66,5.25-.71.09.94c0,.31.05.61.07.91s0,.57.05.83,0,.51,0,.72l1.49-.2.09.65-7.67,1-.09-.65Zm1.74,4.13-5.33.72-.36-2.68.75-.1.28,2,4.57-.62Z" transform="translate(-247.47 -355.65)"/><path class="cls-10" d="M320.45,427.53l-4.57.62-.27-2-.76.1.36,2.68,5.33-.72Zm-7.07-2.73.09.65,7.67-1-.09-.65-1.49.2c0-.21,0-.45,0-.72s0-.54-.05-.83,0-.6-.07-.91l-.09-.94-5.25.71.09.66,4.47-.61c.06.44.1.9.12,1.37s0,.93,0,1.37Z" transform="translate(-247.47 -355.65)"/><path class="cls-9" d="M323.54,419.58a5.37,5.37,0,0,1,.15.76,5.78,5.78,0,0,1,.05.71,4.53,4.53,0,0,0,1.16,1,4.85,4.85,0,0,0,1.44.55l-.32.64a4.89,4.89,0,0,1-2.37-1.31,4.29,4.29,0,0,1-.51,1.36,5.34,5.34,0,0,1-.92,1.16l-.64-.37a4.53,4.53,0,0,0,1.28-2,3.94,3.94,0,0,0-.08-2.32Zm5.23,5.29a1.3,1.3,0,0,1,0,.65,1.46,1.46,0,0,1-.37.61,2.92,2.92,0,0,1-.74.52,5.39,5.39,0,0,1-1.1.41,5.27,5.27,0,0,1-1.17.16,2.68,2.68,0,0,1-.89-.11,1.54,1.54,0,0,1-.61-.37,1.26,1.26,0,0,1-.32-.56,1.19,1.19,0,0,1,0-.65,1.36,1.36,0,0,1,.37-.61,2.65,2.65,0,0,1,.73-.53,5,5,0,0,1,1.1-.4,4.79,4.79,0,0,1,1.17-.17,2.78,2.78,0,0,1,.9.11,1.61,1.61,0,0,1,.61.37A1.3,1.3,0,0,1,328.77,424.87Zm-.78.2a.63.63,0,0,0-.19-.32,1.06,1.06,0,0,0-.41-.21,2,2,0,0,0-.63-.06,4,4,0,0,0-.84.13,3.79,3.79,0,0,0-.79.28,2.32,2.32,0,0,0-.53.35,1.08,1.08,0,0,0-.26.38.67.67,0,0,0,0,.37.6.6,0,0,0,.19.31,1.06,1.06,0,0,0,.41.21,2.36,2.36,0,0,0,.62.05,3.93,3.93,0,0,0,.83-.13,4,4,0,0,0,.81-.28,2.56,2.56,0,0,0,.53-.34,1.08,1.08,0,0,0,.26-.38A.64.64,0,0,0,328,425.07Zm-2.65-3.67-.17-.66,1.59-.4-.42-1.68.74-.19,1.19,4.72-.74.19-.6-2.38Z" transform="translate(-247.47 -355.65)"/><path class="cls-10" d="M328,425.43a1.08,1.08,0,0,1-.26.38,2.56,2.56,0,0,1-.53.34,4,4,0,0,1-.81.28,3.93,3.93,0,0,1-.83.13,2.36,2.36,0,0,1-.62-.05,1.06,1.06,0,0,1-.41-.21.6.6,0,0,1-.19-.31.67.67,0,0,1,0-.37,1.08,1.08,0,0,1,.26-.38,2.32,2.32,0,0,1,.53-.35,3.79,3.79,0,0,1,.79-.28,4,4,0,0,1,.84-.13,2,2,0,0,1,.63.06,1.06,1.06,0,0,1,.41.21.63.63,0,0,1,.19.32A.64.64,0,0,1,328,425.43Zm.48-1.13a1.61,1.61,0,0,0-.61-.37,2.78,2.78,0,0,0-.9-.11,4.79,4.79,0,0,0-1.17.17,5,5,0,0,0-1.1.4,2.65,2.65,0,0,0-.73.53,1.36,1.36,0,0,0-.37.61,1.19,1.19,0,0,0,0,.65,1.26,1.26,0,0,0,.32.56,1.54,1.54,0,0,0,.61.37,2.68,2.68,0,0,0,.89.11,5.27,5.27,0,0,0,1.17-.16,5.39,5.39,0,0,0,1.1-.41,2.92,2.92,0,0,0,.74-.52,1.46,1.46,0,0,0,.37-.61,1.25,1.25,0,0,0-.31-1.22Zm-1.52-3.3.6,2.38.74-.19-1.19-4.72-.74.19.42,1.68-1.59.4.17.66Zm-4.15-1.23a3.94,3.94,0,0,1,.08,2.32,4.53,4.53,0,0,1-1.28,2l.64.37a5.34,5.34,0,0,0,.92-1.16,4.29,4.29,0,0,0,.51-1.36,4.5,4.5,0,0,0,1.07.81,4.74,4.74,0,0,0,1.3.5l.32-.64a4.85,4.85,0,0,1-1.44-.55,4.53,4.53,0,0,1-1.16-1,5.78,5.78,0,0,0-.05-.71,5.37,5.37,0,0,0-.15-.76Z" transform="translate(-247.47 -355.65)"/><line class="cls-11" x1="53.53" y1="90.72" x2="68.03" y2="90.72"/></svg>